<?xml version="1.0" standalone="no"?>
<!DOCTYPE svg PUBLIC "-//W3C//DTD SVG 20010904//EN"
 "http://www.w3.org/TR/2001/REC-SVG-20010904/DTD/svg10.dtd">
<svg version="1.0" xmlns="http://www.w3.org/2000/svg"
 width="1000.000000pt" height="1000.000000pt" viewBox="0 0 1000.000000 1000.000000"
 preserveAspectRatio="xMidYMid meet">

<g transform="translate(0.000000,1000.000000) scale(0.100000,-0.100000)"
fill="#000000" stroke="none">
<path d="M3010 6659 c-172 -18 -201 -22 -206 -30 -3 -5 -16 -9 -29 -9 -13 0
-34 -4 -47 -9 -13 -5 -43 -15 -68 -22 -25 -7 -49 -15 -55 -19 -5 -4 -30 -12
-55 -20 -121 -36 -446 -215 -510 -280 -3 -3 -22 -18 -43 -34 -51 -37 -242
-227 -293 -291 -46 -57 -129 -178 -168 -245 -50 -88 -136 -273 -136 -295 0 -7
-4 -17 -10 -20 -5 -3 -10 -16 -10 -29 0 -12 -4 -26 -8 -31 -5 -6 -14 -30 -21
-55 -7 -25 -17 -59 -22 -76 -5 -17 -9 -42 -9 -55 0 -14 -4 -29 -9 -34 -16 -18
-23 -126 -24 -390 0 -243 7 -343 32 -440 5 -22 14 -58 19 -80 9 -40 16 -61 32
-100 4 -11 13 -36 20 -55 24 -70 124 -283 149 -319 10 -14 29 -45 42 -68 13
-23 34 -54 46 -70 12 -15 43 -56 69 -91 97 -131 379 -385 492 -443 15 -8 55
-31 89 -51 35 -21 65 -38 68 -38 2 0 42 -17 87 -39 46 -21 99 -44 118 -51 19
-7 44 -16 55 -20 221 -90 591 -117 850 -64 39 8 83 17 98 21 16 3 31 12 34 19
3 8 11 14 18 14 8 0 16 4 19 8 3 4 -120 8 -272 8 -184 -1 -298 3 -339 12 -35
6 -91 17 -125 23 -35 6 -76 15 -93 19 -16 5 -50 14 -75 20 -25 7 -54 16 -65
20 -11 4 -36 13 -55 20 -96 33 -223 97 -360 181 -30 19 -57 36 -60 39 -3 3
-21 17 -40 30 -158 110 -352 314 -455 479 -5 8 -22 34 -36 56 -74 113 -175
359 -218 530 -61 248 -66 543 -11 798 5 26 14 66 19 90 10 49 37 134 51 159 6
10 10 23 10 28 0 10 28 73 83 190 34 69 146 252 166 270 4 3 19 23 35 45 37
51 238 252 291 290 22 17 42 33 45 36 21 25 208 137 310 186 160 77 227 102
345 131 22 6 58 15 80 20 144 37 379 55 593 47 134 -5 182 -4 182 4 0 6 -8 14
-17 17 -10 3 -31 12 -48 19 -92 44 -355 65 -555 44z"/>
<path d="M2537 5613 c-4 -3 -7 -406 -7 -894 0 -699 3 -889 13 -896 21 -13
1221 -3 1229 10 13 20 9 104 -5 116 -10 7 -153 12 -468 13 l-454 3 -3 828 -2
827 -148 0 c-82 0 -152 -3 -155 -7z"/>
<path d="M2964 5607 c-3 -8 -4 -52 -2 -98 l3 -84 465 -5 465 -5 3 -797 2 -798
150 0 c149 0 150 0 151 23 0 19 0 1645 -1 1740 l0 37 -615 0 c-504 0 -617 -2
-621 -13z"/>
<path d="M5440 5390 l0 -130 54 0 c30 0 58 5 61 10 4 6 -9 10 -32 10 -22 0
-44 5 -51 12 -8 8 -12 49 -12 120 0 65 -4 108 -10 108 -6 0 -10 -50 -10 -130z"/>
<path d="M5820 5390 l0 -130 70 0 c84 0 94 18 13 22 l-58 3 -3 48 -3 47 60 0
c77 0 80 18 4 22 l-58 3 -3 47 c-3 42 -1 48 20 52 13 3 38 4 56 3 18 -2 35 0
38 5 3 4 -27 8 -65 8 l-71 0 0 -130z"/>
<path d="M6320 5496 c0 -14 -4 -26 -10 -26 -5 0 -10 -7 -10 -15 0 -8 -4 -23
-9 -33 -8 -16 -13 -28 -40 -94 -19 -48 -21 -60 -9 -56 7 3 15 13 17 23 6 33
28 45 85 45 53 0 55 -1 67 -35 13 -36 29 -47 29 -20 0 8 -4 23 -9 33 -5 9 -13
28 -19 42 -10 27 -49 115 -61 139 -13 26 -31 24 -31 -3z m24 -32 c9 -3 16 -14
16 -24 0 -11 5 -22 10 -25 6 -3 10 -17 10 -31 0 -22 -4 -24 -45 -24 -44 0 -45
1 -39 28 4 15 11 31 15 37 5 5 9 17 9 27 0 20 1 21 24 12z"/>
<path d="M6710 5393 c0 -84 4 -123 10 -113 5 8 7 25 3 38 -5 21 11 52 27 52
12 0 44 -33 70 -72 14 -21 28 -38 33 -38 15 0 6 26 -22 59 -31 36 -31 56 0 64
23 6 42 53 34 86 -10 37 -34 50 -97 51 l-58 0 0 -127z m137 82 c14 -31 -2 -71
-32 -79 -34 -9 -70 -7 -83 6 -13 13 -17 80 -5 91 3 4 29 7 57 7 45 0 52 -3 63
-25z"/>
<path d="M7140 5390 c0 -80 4 -130 10 -130 6 0 10 37 10 90 0 50 4 90 9 90 5
0 35 -36 67 -80 32 -44 62 -80 66 -80 4 0 8 53 8 117 0 127 -17 149 -22 29 -2
-38 -7 -71 -13 -72 -5 -2 -35 34 -65 81 -30 46 -58 84 -62 85 -5 0 -8 -58 -8
-130z"/>
<path d="M2288 4890 c-42 -27 -103 -63 -135 -80 -31 -17 -69 -39 -83 -49 -14
-9 -36 -22 -50 -29 -33 -17 -65 -41 -59 -45 7 -6 131 -77 204 -118 28 -15 88
-50 135 -78 47 -28 88 -51 93 -51 4 0 7 31 7 68 0 67 -1 69 -32 85 -28 14 -94
53 -148 86 -12 8 -12 12 -1 25 7 9 19 16 26 16 8 0 15 4 17 8 2 5 32 25 68 44
l65 36 3 66 c4 82 -3 83 -110 16z"/>
<path d="M4340 4870 c0 -43 4 -70 11 -70 6 0 29 -13 52 -28 23 -15 53 -33 67
-40 52 -27 64 -40 50 -57 -7 -8 -16 -15 -20 -15 -4 0 -42 -21 -84 -46 l-76
-46 0 -64 c0 -35 4 -64 9 -64 5 0 65 32 133 71 134 78 173 100 209 121 13 7
26 15 29 18 3 3 17 11 33 19 15 8 27 17 27 21 0 3 -17 15 -37 27 -71 38 -138
76 -176 100 -37 23 -66 40 -144 84 -21 11 -42 25 -47 30 -26 25 -36 8 -36 -61z"/>
<path d="M2970 4721 l0 -150 43 -6 c23 -3 202 -5 397 -3 l355 3 7 70 c3 39 4
107 1 153 l-6 82 -398 0 -399 0 0 -149z"/>
<path d="M5487 4833 c-4 -3 -7 -11 -7 -17 0 -6 5 -5 12 2 6 6 9 14 7 17 -3 3
-9 2 -12 -2z"/>
<path d="M7688 4828 c-3 -11 -3 -105 1 -158 1 -9 6 -5 15 10 8 16 9 29 4 37
-5 7 -8 35 -7 62 3 49 -4 75 -13 49z"/>
<path d="M8126 4831 c-4 -7 -5 -15 -2 -18 9 -9 19 4 14 18 -4 11 -6 11 -12 0z"/>
<path d="M6793 4775 c0 -22 2 -30 4 -17 2 12 2 30 0 40 -3 9 -5 -1 -4 -23z"/>
<path d="M6360 4775 c0 -8 5 -15 10 -15 6 0 10 7 10 15 0 8 -4 15 -10 15 -5 0
-10 -7 -10 -15z"/>
<path d="M5977 4721 c7 -29 28 -32 28 -5 0 16 -6 24 -17 24 -11 0 -15 -6 -11
-19z"/>
<path d="M8120 4723 c0 -20 4 -21 58 -16 73 7 80 13 16 13 -28 0 -55 5 -62 12
-9 9 -12 7 -12 -9z"/>
<path d="M5480 4716 c0 -17 14 -19 45 -6 16 7 17 9 3 9 -9 1 -23 4 -32 7 -11
4 -16 1 -16 -10z"/>
<path d="M6366 4721 c-4 -6 -3 -18 2 -27 8 -14 10 -14 15 -2 7 19 -8 44 -17
29z"/>
<path d="M7755 4680 c20 -22 31 -20 22 5 -4 8 -14 15 -23 15 -16 0 -16 -2 1
-20z"/>
<path d="M6791 4674 c0 -11 3 -14 6 -6 3 7 2 16 -1 19 -3 4 -6 -2 -5 -13z"/>
<path d="M5552 4148 c-7 -7 -12 -18 -12 -25 0 -7 -4 -21 -9 -31 -23 -42 -51
-113 -51 -127 0 -8 -4 -15 -10 -15 -5 0 -10 -9 -10 -20 0 -25 20 -27 20 -2 1
37 25 52 82 52 57 0 73 -9 79 -44 2 -11 9 -21 16 -23 15 -5 6 31 -19 75 -10
18 -18 41 -18 52 0 11 -4 20 -10 20 -5 0 -10 9 -10 19 0 11 -4 23 -10 26 -5 3
-10 17 -10 31 0 26 -9 31 -28 12z m28 -56 c0 -10 4 -22 9 -27 4 -6 11 -22 15
-37 6 -27 5 -28 -39 -28 -41 0 -45 2 -45 24 0 14 5 28 10 31 6 3 10 15 10 25
0 16 12 27 33 29 4 1 7 -7 7 -17z"/>
<path d="M5968 4139 c-16 -11 -28 -27 -28 -35 0 -8 -4 -14 -10 -14 -5 0 -10
-25 -10 -55 0 -30 5 -55 10 -55 6 0 10 -7 10 -14 0 -8 15 -26 33 -40 50 -38
103 -35 153 8 21 19 36 37 32 42 -5 4 -16 -1 -26 -12 -51 -55 -107 -59 -157
-9 -29 30 -35 43 -35 80 0 35 6 49 31 74 17 17 40 31 52 32 47 3 73 -4 93 -22
34 -32 51 -22 19 11 -25 26 -35 30 -84 30 -41 -1 -64 -6 -83 -21z"/>
<path d="M6578 4103 l-3 -58 -55 0 -55 0 -3 53 c-2 28 -7 52 -13 52 -5 0 -9
-51 -9 -120 0 -73 4 -120 10 -120 6 0 10 25 10 55 l0 55 60 0 60 0 0 -54 c0
-30 5 -58 10 -61 6 -4 10 40 10 124 0 76 -4 131 -10 131 -5 0 -10 -26 -12 -57z"/>
<path d="M6880 4105 c0 -30 5 -55 10 -55 6 0 10 25 10 55 0 30 -4 55 -10 55
-5 0 -10 -25 -10 -55z"/>
<path d="M7180 4030 l0 -130 80 0 c97 0 107 18 13 22 l-68 3 0 45 0 45 58 3
c69 4 77 22 9 22 -58 0 -72 12 -72 62 0 41 4 43 67 39 18 -1 40 2 50 8 14 8
-1 10 -59 11 l-78 0 0 -130z"/>
<path d="M7600 4155 c0 -2 12 -30 26 -62 29 -64 45 -101 65 -150 8 -18 17 -33
20 -33 6 0 23 34 42 80 5 14 13 33 18 42 5 10 9 25 9 33 0 8 5 15 10 15 6 0
10 9 10 19 0 11 5 23 10 26 12 7 14 35 3 35 -9 0 -33 -49 -33 -67 0 -7 -4 -13
-10 -13 -5 0 -10 -7 -10 -15 0 -8 -4 -23 -9 -33 -5 -9 -14 -29 -22 -44 -7 -16
-15 -28 -18 -28 -5 0 -41 74 -61 125 -17 44 -34 75 -42 75 -4 0 -8 -2 -8 -5z"/>
<path d="M8080 4030 l0 -130 80 0 c97 0 107 18 13 22 l-68 3 -3 48 -3 47 60 0
c34 0 61 4 61 10 0 6 -22 10 -48 10 -56 0 -72 12 -72 56 0 42 15 52 80 57 47
3 43 4 -22 5 l-78 2 0 -130z"/>
</g>
</svg>
