<svg id="svg" version="1.1" xmlns="http://www.w3.org/2000/svg" xmlns:xlink="http://www.w3.org/1999/xlink" width="400" height="400" viewBox="0, 0, 400,400"><g id="svgg"><path id="path0" d="M145.667 133.775 C 145.820 134.664,143.388 135.473,143.047 134.646 C 142.946 134.401,142.849 134.590,142.832 135.067 C 142.814 135.543,142.575 136.012,142.300 136.109 C 141.669 136.330,143.427 137.892,144.700 138.240 C 145.241 138.389,145.600 138.798,145.600 139.267 C 145.600 139.755,145.427 139.940,145.138 139.762 C 144.884 139.605,144.781 139.645,144.908 139.851 C 145.035 140.057,145.735 140.271,146.463 140.326 C 147.191 140.382,147.961 140.601,148.173 140.813 C 148.386 141.026,149.053 141.200,149.656 141.200 C 150.259 141.200,150.864 141.380,151.000 141.600 C 151.136 141.820,151.591 142.000,152.011 142.000 C 152.432 142.000,153.417 142.360,154.200 142.800 C 154.983 143.240,155.979 143.600,156.412 143.600 C 156.845 143.600,157.200 143.780,157.200 144.000 C 157.200 144.220,157.434 144.400,157.720 144.400 C 158.456 144.400,160.393 145.341,160.397 145.700 C 160.399 145.865,160.760 146.000,161.200 146.000 C 161.640 146.000,162.000 146.180,162.000 146.400 C 162.000 146.620,162.360 146.800,162.800 146.800 C 163.240 146.800,163.600 146.980,163.600 147.200 C 163.600 147.420,163.960 147.600,164.400 147.600 C 164.840 147.600,165.200 147.780,165.200 148.000 C 165.200 148.220,165.560 148.400,166.000 148.400 C 166.440 148.400,166.800 148.580,166.800 148.800 C 166.800 149.020,167.036 149.200,167.325 149.200 C 167.613 149.200,168.236 149.560,168.708 150.000 C 169.180 150.440,169.727 150.800,169.924 150.800 C 170.121 150.800,170.846 151.340,171.537 152.000 C 172.228 152.660,172.937 153.200,173.112 153.200 C 173.288 153.200,174.228 153.920,175.200 154.800 C 176.172 155.680,177.200 156.400,177.484 156.400 C 177.768 156.400,178.000 156.591,178.000 156.824 C 178.000 157.070,178.632 157.196,179.500 157.124 C 181.073 156.994,182.008 153.848,180.824 152.664 C 180.591 152.431,180.400 151.978,180.400 151.658 C 180.400 150.975,175.440 146.000,174.758 146.000 C 174.503 146.000,174.001 145.685,173.643 145.300 C 172.968 144.575,172.123 144.043,169.400 142.630 C 168.520 142.174,167.710 141.710,167.600 141.600 C 167.122 141.122,165.561 140.400,165.005 140.400 C 164.672 140.400,164.400 140.220,164.400 140.000 C 164.400 139.780,164.040 139.600,163.600 139.600 C 163.160 139.600,162.800 139.420,162.800 139.200 C 162.800 138.980,162.395 138.796,161.900 138.791 C 161.405 138.786,160.550 138.430,160.000 138.000 C 159.450 137.570,158.683 137.214,158.295 137.209 C 157.907 137.204,157.232 137.020,156.795 136.800 C 156.358 136.580,155.642 136.220,155.205 136.000 C 154.768 135.780,153.958 135.600,153.405 135.600 C 152.852 135.600,152.400 135.420,152.400 135.200 C 152.400 134.980,151.871 134.800,151.224 134.800 C 150.577 134.800,149.924 134.601,149.774 134.357 C 149.583 134.049,149.396 134.079,149.156 134.457 C 148.903 134.857,148.811 134.868,148.806 134.500 C 148.803 134.221,148.306 134.000,147.680 134.000 C 147.064 134.000,146.329 133.775,146.047 133.500 C 145.633 133.097,145.559 133.150,145.667 133.775 M121.600 204.382 L 122.600 204.685 121.600 204.917 C 121.050 205.045,120.060 205.281,119.400 205.441 C 118.740 205.600,118.103 205.714,117.985 205.694 C 117.867 205.673,117.770 208.164,117.770 211.228 C 117.770 216.211,117.842 216.800,118.452 216.800 C 118.827 216.800,119.207 217.021,119.297 217.292 C 119.422 217.666,122.318 217.785,131.396 217.792 C 140.582 217.798,143.370 217.915,143.499 218.300 C 143.738 219.012,150.751 218.964,151.700 218.243 C 152.316 217.776,152.400 216.936,152.400 211.280 C 152.400 205.333,152.086 203.367,151.413 205.102 C 151.163 205.747,151.098 205.740,150.550 205.000 C 149.892 204.111,128.704 203.936,127.828 204.812 C 127.235 205.405,123.899 205.250,123.024 204.587 C 122.596 204.264,121.876 204.018,121.424 204.040 C 120.720 204.074,120.745 204.124,121.600 204.382 M223.700 205.098 C 222.545 205.177,221.585 205.367,221.567 205.521 C 221.548 205.674,221.456 206.250,221.362 206.800 C 221.268 207.350,221.191 208.870,221.192 210.178 C 221.193 211.619,220.997 212.696,220.697 212.909 C 220.302 213.189,220.302 213.302,220.700 213.464 C 220.975 213.575,221.200 214.091,221.200 214.610 C 221.200 215.128,221.396 215.674,221.635 215.822 C 221.874 215.969,221.991 216.393,221.894 216.763 C 221.742 217.344,222.088 217.435,224.449 217.435 C 225.952 217.435,226.986 217.315,226.749 217.169 C 226.441 216.978,226.444 216.665,226.759 216.077 C 227.572 214.558,227.314 214.000,225.800 214.000 C 224.278 214.000,224.204 213.913,224.795 212.810 C 225.041 212.349,225.474 212.146,225.946 212.270 C 226.499 212.415,226.846 212.144,227.236 211.263 C 227.530 210.600,227.939 210.163,228.147 210.291 C 228.357 210.421,228.390 210.308,228.221 210.035 C 228.055 209.766,227.676 209.639,227.380 209.752 C 227.051 209.879,226.920 209.754,227.043 209.432 C 227.193 209.041,226.880 208.946,225.832 209.061 C 224.808 209.174,224.472 209.077,224.614 208.708 C 224.721 208.429,225.347 208.165,226.004 208.122 C 228.203 207.979,228.400 207.879,228.400 206.910 C 228.400 206.374,228.224 206.062,228.000 206.200 C 227.780 206.336,227.600 206.167,227.600 205.824 C 227.600 205.481,227.435 205.200,227.233 205.200 C 227.031 205.200,226.626 205.145,226.333 205.077 C 226.040 205.009,224.855 205.019,223.700 205.098 M244.600 205.600 C 244.438 206.110,244.104 206.372,243.777 206.246 C 243.474 206.130,243.102 206.235,242.951 206.479 C 242.785 206.748,242.859 206.811,243.138 206.638 C 243.398 206.478,243.600 206.583,243.600 206.880 C 243.600 207.170,243.240 207.632,242.800 207.907 C 242.100 208.345,242.000 208.307,242.000 207.603 C 242.000 207.142,241.734 206.800,241.376 206.800 C 241.007 206.800,240.869 206.988,241.038 207.262 C 241.204 207.530,241.149 207.616,240.907 207.466 C 240.049 206.936,239.526 208.268,239.966 209.861 C 240.311 211.109,240.276 211.438,239.770 211.721 C 239.289 211.990,239.258 212.188,239.627 212.632 C 240.233 213.363,239.456 214.400,238.302 214.400 C 237.636 214.400,237.586 214.501,238.000 215.000 C 238.672 215.809,239.544 215.753,241.110 214.799 C 242.503 213.949,242.969 213.803,242.652 214.315 C 242.545 214.488,242.976 214.860,243.610 215.140 C 244.244 215.421,244.873 215.999,245.008 216.425 C 245.301 217.347,247.200 217.519,247.200 216.624 C 247.200 216.307,247.011 215.931,246.781 215.788 C 246.490 215.608,246.489 215.375,246.777 215.028 C 247.303 214.394,246.920 214.000,245.780 214.000 C 244.783 214.000,244.173 212.556,244.833 211.760 C 245.084 211.458,245.090 211.226,244.850 211.139 C 244.303 210.941,244.793 208.800,245.384 208.800 C 246.502 208.800,247.931 207.036,247.572 206.100 C 247.381 205.605,246.965 205.200,246.646 205.200 C 246.327 205.200,245.797 205.097,245.469 204.971 C 245.088 204.825,244.774 205.053,244.600 205.600 M256.876 205.250 C 256.275 205.472,256.093 205.776,256.275 206.250 C 256.452 206.711,256.385 206.838,256.068 206.642 C 255.721 206.428,255.600 207.502,255.600 210.780 C 255.600 215.595,256.497 217.647,258.566 217.568 C 259.380 217.538,259.314 217.495,257.619 216.950 C 257.201 216.815,257.357 216.553,258.176 216.016 C 258.802 215.605,259.559 215.363,259.857 215.477 C 260.181 215.602,260.400 215.415,260.400 215.014 C 260.400 214.191,261.461 213.067,261.952 213.370 C 262.148 213.492,262.532 213.323,262.804 212.996 C 263.076 212.668,263.546 212.400,263.849 212.400 C 264.212 212.400,264.400 211.922,264.400 211.000 C 264.400 210.230,264.220 209.600,264.000 209.600 C 263.347 209.600,263.542 208.858,264.430 207.970 C 265.250 207.150,265.250 207.138,264.467 206.933 C 264.031 206.819,263.584 206.383,263.474 205.963 C 263.365 205.543,263.067 205.200,262.814 205.200 C 262.551 205.200,262.482 205.415,262.653 205.700 C 262.883 206.082,262.818 206.094,262.377 205.751 C 261.630 205.169,257.991 204.838,256.876 205.250 M312.421 205.253 C 312.409 205.613,312.040 206.001,311.600 206.116 C 310.883 206.304,310.800 206.662,310.800 209.586 C 310.800 211.658,310.654 212.757,310.400 212.600 C 310.152 212.447,310.020 213.084,310.053 214.276 C 310.104 216.144,310.114 216.159,310.400 214.800 C 310.694 213.403,310.695 213.403,310.760 214.600 C 310.882 216.835,311.945 217.655,313.153 216.447 C 314.008 215.592,316.000 215.732,316.000 216.647 C 316.000 216.951,316.135 217.220,316.300 217.244 C 317.867 217.473,319.209 217.452,318.809 217.206 C 318.510 217.021,318.422 216.561,318.586 216.044 C 318.735 215.573,319.038 215.300,319.258 215.436 C 319.479 215.572,319.422 215.305,319.133 214.842 C 318.542 213.896,318.142 213.774,317.910 214.471 C 317.538 215.587,316.867 214.298,317.088 212.893 C 317.327 211.379,317.868 210.688,318.606 210.956 C 318.851 211.044,318.953 210.489,318.864 209.551 C 318.783 208.698,318.547 208.000,318.341 208.000 C 318.135 208.000,317.580 207.640,317.108 207.200 C 316.621 206.747,315.696 206.400,314.973 206.400 C 314.103 206.400,313.498 206.114,313.070 205.500 C 312.582 204.801,312.437 204.746,312.421 205.253 M328.298 205.593 C 327.917 206.038,327.807 206.400,328.053 206.400 C 328.376 206.400,328.373 206.550,328.045 206.946 C 327.338 207.797,327.528 215.519,328.284 216.672 C 328.888 217.595,330.157 217.917,330.568 217.252 C 330.686 217.061,331.552 217.045,332.491 217.217 C 333.431 217.390,334.275 217.456,334.367 217.365 C 334.458 217.274,334.323 217.200,334.067 217.200 C 333.810 217.200,333.600 217.048,333.600 216.861 C 333.600 216.376,335.044 214.777,335.274 215.007 C 335.380 215.113,335.467 214.938,335.467 214.618 C 335.467 214.297,335.353 214.105,335.214 214.191 C 334.602 214.569,333.778 213.614,334.381 213.226 C 334.700 213.021,335.075 212.923,335.214 213.009 C 335.353 213.095,335.467 212.911,335.467 212.600 C 335.467 212.289,335.286 212.147,335.065 212.283 C 334.824 212.432,334.771 212.266,334.932 211.866 C 335.079 211.500,335.321 210.900,335.468 210.534 C 335.639 210.109,335.580 209.965,335.303 210.136 C 334.838 210.424,334.840 209.691,335.307 208.945 C 335.476 208.674,335.247 208.401,334.739 208.268 C 334.012 208.078,333.921 207.839,334.119 206.623 L 334.350 205.200 332.208 205.200 C 331.029 205.200,329.823 205.107,329.527 204.993 C 329.231 204.880,328.678 205.150,328.298 205.593 M237.463 206.083 C 237.180 207.163,237.104 207.097,238.800 207.263 C 240.086 207.389,240.203 207.311,240.240 206.300 C 240.295 204.814,237.844 204.623,237.463 206.083 M273.200 205.520 C 273.200 205.696,273.408 206.048,273.663 206.303 C 273.985 206.625,274.000 206.924,273.714 207.283 C 272.865 208.348,273.083 215.600,273.964 215.600 C 275.373 215.600,276.326 216.923,275.162 217.263 C 274.577 217.434,275.141 217.516,276.600 217.472 C 278.759 217.407,279.013 217.309,279.128 216.500 C 279.198 216.005,279.402 215.600,279.581 215.600 C 279.760 215.600,280.001 215.240,280.116 214.800 C 280.322 214.013,279.679 213.757,278.060 213.979 C 277.763 214.020,277.631 213.874,277.766 213.654 C 277.902 213.435,277.815 213.133,277.572 212.983 C 277.281 212.803,277.223 211.922,277.402 210.384 C 277.706 207.766,277.421 206.400,276.573 206.400 C 276.258 206.400,276.000 206.130,276.000 205.800 C 276.000 205.381,275.578 205.200,274.600 205.200 C 273.830 205.200,273.200 205.344,273.200 205.520 M295.389 205.967 C 295.646 206.775,294.396 206.749,293.336 205.923 C 293.052 205.702,292.770 205.724,292.612 205.981 C 292.469 206.211,292.469 206.400,292.612 206.400 C 292.834 206.400,292.280 207.170,290.394 209.483 C 290.177 209.749,290.000 210.503,290.000 211.160 C 290.000 211.816,289.817 212.466,289.593 212.604 C 288.996 212.973,289.526 213.603,290.213 213.340 C 290.794 213.117,290.959 213.533,290.824 214.881 C 290.776 215.365,290.992 215.517,291.569 215.406 C 292.077 215.308,292.658 215.602,293.121 216.190 C 294.027 217.342,297.617 217.787,297.921 216.785 C 298.018 216.463,298.645 215.621,299.314 214.914 C 300.536 213.621,301.646 209.170,300.819 208.879 C 300.282 208.690,298.124 206.548,297.651 205.733 C 297.416 205.330,297.219 205.225,297.212 205.500 C 297.198 206.089,296.000 206.188,296.000 205.600 C 296.000 205.380,295.808 205.200,295.573 205.200 C 295.334 205.200,295.253 205.538,295.389 205.967 M315.579 207.774 C 316.124 208.431,315.452 210.151,314.743 209.914 C 314.227 209.742,314.350 208.963,314.870 209.110 C 315.084 209.170,315.144 209.032,315.002 208.803 C 314.861 208.574,314.577 208.491,314.372 208.617 C 314.168 208.744,314.000 208.477,314.000 208.024 C 314.000 207.073,314.881 206.934,315.579 207.774 M256.282 211.700 C 256.187 212.195,256.109 211.790,256.109 210.800 C 256.109 209.810,256.187 209.405,256.282 209.900 C 256.378 210.395,256.378 211.205,256.282 211.700 M297.014 209.846 C 298.306 210.692,298.264 211.880,296.900 213.053 C 295.694 214.090,294.805 214.279,294.791 213.500 C 294.786 213.225,294.450 212.568,294.045 212.041 C 292.651 210.229,294.976 208.510,297.014 209.846 M312.600 217.600 L 311.400 217.905 312.476 217.953 C 313.068 217.979,313.664 217.820,313.800 217.600 C 313.936 217.380,313.992 217.221,313.924 217.247 C 313.856 217.273,313.260 217.432,312.600 217.600 M176.463 267.200 C 175.772 267.860,175.052 268.400,174.863 268.400 C 174.674 268.400,173.954 268.940,173.263 269.600 C 172.572 270.260,171.871 270.800,171.704 270.801 C 171.537 270.801,170.770 271.341,170.000 272.000 C 169.230 272.659,168.375 273.199,168.100 273.199 C 167.825 273.200,167.600 273.380,167.600 273.600 C 167.600 273.820,167.240 274.000,166.800 274.000 C 166.360 274.000,166.000 274.150,166.000 274.332 C 166.000 274.515,165.505 274.920,164.900 275.232 C 164.295 275.544,163.710 275.889,163.600 275.999 C 163.124 276.477,161.561 277.200,161.005 277.200 C 160.672 277.200,160.400 277.380,160.400 277.600 C 160.400 277.820,160.040 278.000,159.600 278.000 C 159.160 278.000,158.800 278.180,158.800 278.400 C 158.800 278.620,158.440 278.800,158.000 278.800 C 157.560 278.800,157.200 278.980,157.200 279.200 C 157.200 279.420,156.660 279.600,156.000 279.600 C 155.340 279.600,154.800 279.780,154.800 280.000 C 154.800 280.220,154.361 280.400,153.824 280.400 C 153.287 280.400,152.736 280.580,152.600 280.800 C 152.464 281.020,151.924 281.200,151.400 281.200 C 150.876 281.200,150.336 281.380,150.200 281.600 C 150.064 281.820,149.323 282.000,148.553 282.000 C 147.586 282.000,147.242 282.145,147.442 282.468 C 147.638 282.784,147.512 282.852,147.053 282.676 C 146.576 282.493,146.242 282.709,145.924 283.408 C 145.379 284.603,144.800 284.702,144.800 283.600 C 144.800 283.160,144.620 282.800,144.400 282.800 C 144.180 282.800,144.000 283.177,144.000 283.637 C 144.000 284.142,143.678 284.559,143.189 284.687 C 142.611 284.838,142.446 285.115,142.616 285.650 C 142.780 286.166,142.658 286.400,142.227 286.400 C 141.882 286.400,141.600 286.580,141.600 286.800 C 141.600 287.020,141.851 287.200,142.157 287.200 C 142.464 287.200,142.809 287.448,142.926 287.751 C 143.064 288.111,143.515 288.229,144.231 288.092 C 145.003 287.944,145.483 288.099,145.863 288.618 C 146.158 289.022,146.400 289.139,146.400 288.876 C 146.400 288.243,147.487 288.263,147.701 288.900 C 147.832 289.288,148.114 289.270,148.966 288.815 C 149.570 288.494,150.490 288.266,151.012 288.309 C 151.534 288.352,152.070 288.211,152.204 287.994 C 152.338 287.777,152.799 287.600,153.229 287.600 C 153.659 287.600,154.413 287.392,154.905 287.138 C 156.831 286.142,157.217 286.000,157.995 286.000 C 158.438 286.000,158.800 285.820,158.800 285.600 C 158.800 285.380,159.155 285.200,159.588 285.200 C 160.345 285.200,162.992 283.913,163.780 283.162 C 163.989 282.963,164.574 282.800,165.080 282.800 C 165.586 282.800,166.000 282.620,166.000 282.400 C 166.000 282.180,166.320 282.000,166.712 282.000 C 167.103 282.000,167.683 281.640,168.000 281.200 C 168.317 280.760,168.897 280.400,169.288 280.400 C 169.680 280.400,170.000 280.220,170.000 280.000 C 170.000 279.780,170.320 279.600,170.712 279.600 C 171.103 279.600,171.683 279.240,172.000 278.800 C 172.317 278.360,172.857 278.000,173.200 278.000 C 173.543 278.000,174.083 277.640,174.400 277.200 C 174.717 276.760,175.222 276.400,175.523 276.400 C 176.455 276.400,180.400 271.989,180.400 270.946 C 180.400 270.426,180.580 270.000,180.800 270.000 C 181.020 270.000,181.200 269.345,181.200 268.544 C 181.200 265.858,178.630 265.129,176.463 267.200 " stroke="none" fill="#9858c2" fill-rule="evenodd"></path><path id="path1" d="M132.608 133.822 L 131.526 135.669 132.366 136.564 C 132.829 137.057,133.071 137.610,132.904 137.794 C 132.737 137.978,132.806 138.010,133.058 137.866 C 133.310 137.722,133.616 137.866,133.739 138.184 C 133.913 138.639,134.765 138.753,137.681 138.711 C 140.347 138.673,141.372 138.792,141.300 139.129 C 141.245 139.388,141.380 139.600,141.600 139.600 C 143.440 139.600,141.409 138.233,138.100 137.244 C 134.627 136.206,134.745 134.000,138.274 134.000 C 138.577 134.000,138.922 133.749,139.039 133.442 C 139.165 133.114,139.728 132.916,140.402 132.963 C 141.033 133.007,141.482 132.932,141.398 132.798 C 141.315 132.663,139.842 132.516,138.124 132.472 C 136.407 132.427,134.707 132.297,134.346 132.183 C 133.883 132.036,133.373 132.518,132.608 133.822 M135.600 284.431 C 134.170 284.558,133.270 284.707,133.600 284.763 C 133.934 284.819,133.693 285.048,133.054 285.280 C 132.002 285.663,131.925 285.825,132.116 287.249 C 132.246 288.217,132.176 288.708,131.929 288.556 C 131.712 288.422,131.823 288.872,132.177 289.556 C 132.820 290.798,132.825 290.800,136.187 290.800 C 140.587 290.800,141.125 289.989,137.500 288.821 C 136.015 288.343,135.535 287.484,136.500 287.033 C 136.900 286.847,136.900 286.753,136.500 286.567 C 135.691 286.189,135.928 285.523,136.776 285.792 C 137.318 285.965,137.688 285.782,138.008 285.185 C 138.579 284.118,138.698 284.156,135.600 284.431 " stroke="none" fill="#6c5c7a" fill-rule="evenodd"></path><path id="path2" d="M139.065 133.024 C 139.192 133.356,138.974 133.696,138.542 133.839 C 134.351 135.231,134.239 136.094,138.100 137.231 C 139.695 137.700,141.270 138.381,141.600 138.744 C 141.930 139.106,142.830 139.465,143.600 139.540 C 144.370 139.615,145.200 139.841,145.445 140.042 C 145.757 140.297,145.835 140.116,145.705 139.437 C 145.599 138.880,145.153 138.366,144.660 138.230 C 143.417 137.888,141.680 136.326,142.300 136.109 C 142.575 136.012,142.814 135.543,142.832 135.067 C 142.849 134.590,142.948 134.406,143.051 134.658 C 143.154 134.909,143.635 135.028,144.119 134.922 C 146.090 134.490,146.177 134.399,145.243 133.745 C 144.751 133.400,144.264 133.202,144.161 133.305 C 143.997 133.470,142.742 133.282,139.723 132.641 C 139.085 132.506,138.906 132.610,139.065 133.024 M118.000 205.214 C 118.000 205.895,118.127 205.960,118.774 205.614 C 119.199 205.386,119.964 205.197,120.474 205.194 C 120.983 205.191,121.670 205.013,122.000 204.800 C 122.426 204.525,121.933 204.410,120.300 204.406 C 118.251 204.401,118.000 204.489,118.000 205.214 M123.400 204.800 C 123.536 205.020,124.526 205.200,125.600 205.200 C 126.674 205.200,127.664 205.020,127.800 204.800 C 127.955 204.550,127.130 204.400,125.600 204.400 C 124.070 204.400,123.245 204.550,123.400 204.800 M150.477 204.830 C 150.556 205.067,150.791 205.260,151.000 205.260 C 151.209 205.260,151.445 205.067,151.523 204.830 C 151.602 204.594,151.367 204.400,151.000 204.400 C 150.633 204.400,150.398 204.594,150.477 204.830 M220.432 209.000 C 220.389 211.531,220.514 212.800,220.807 212.800 C 221.080 212.800,221.216 212.005,221.168 210.700 C 221.125 209.545,221.203 207.835,221.341 206.900 C 221.533 205.605,221.462 205.200,221.044 205.200 C 220.623 205.200,220.481 206.080,220.432 209.000 M236.400 205.805 C 236.400 206.577,237.199 208.004,238.100 208.843 C 238.485 209.201,238.800 209.711,238.800 209.975 C 238.800 210.522,239.948 211.785,240.208 211.525 C 240.302 211.432,240.191 210.678,239.963 209.850 C 239.553 208.366,240.037 206.929,240.790 207.394 C 240.955 207.496,241.070 207.194,241.045 206.723 C 241.020 206.252,240.805 205.801,240.567 205.722 C 240.329 205.643,240.149 205.988,240.167 206.489 C 240.185 206.990,239.975 207.382,239.700 207.360 C 239.425 207.338,238.747 207.293,238.192 207.260 C 237.326 207.208,237.220 207.060,237.436 206.200 C 237.626 205.444,237.530 205.200,237.043 205.200 C 236.690 205.200,236.400 205.472,236.400 205.805 M243.040 206.812 C 242.119 208.203,242.084 208.354,242.787 207.916 C 243.234 207.636,243.600 207.181,243.600 206.904 C 243.600 206.627,243.761 206.400,243.957 206.400 C 244.154 206.400,244.418 206.130,244.545 205.800 C 244.999 204.617,244.086 205.231,243.040 206.812 M247.491 206.026 C 247.632 206.566,247.843 206.717,248.099 206.461 C 248.513 206.047,248.187 205.200,247.614 205.200 C 247.427 205.200,247.372 205.572,247.491 206.026 M276.000 205.800 C 276.000 206.130,276.270 206.400,276.600 206.400 C 276.930 206.400,277.200 206.130,277.200 205.800 C 277.200 205.470,276.930 205.200,276.600 205.200 C 276.270 205.200,276.000 205.470,276.000 205.800 M293.293 205.678 C 293.380 205.941,293.950 206.290,294.559 206.452 C 295.455 206.692,295.621 206.633,295.433 206.141 C 295.305 205.808,295.200 205.459,295.200 205.367 C 295.200 205.275,294.735 205.200,294.167 205.200 C 293.543 205.200,293.197 205.390,293.293 205.678 M296.000 205.600 C 296.000 205.820,296.270 206.000,296.600 206.000 C 296.930 206.000,297.200 205.820,297.200 205.600 C 297.200 205.380,296.930 205.200,296.600 205.200 C 296.270 205.200,296.000 205.380,296.000 205.600 M297.600 205.557 C 297.600 206.028,300.369 208.800,300.840 208.800 C 301.435 208.800,301.250 208.257,300.295 207.200 C 299.239 206.031,297.600 205.032,297.600 205.557 M310.480 205.680 C 309.893 206.267,309.824 212.244,310.400 212.600 C 310.654 212.757,310.800 211.658,310.800 209.586 C 310.800 206.662,310.883 206.304,311.600 206.116 C 312.040 206.001,312.400 205.748,312.400 205.553 C 312.400 205.033,311.037 205.123,310.480 205.680 M313.296 205.695 C 313.388 205.973,314.121 206.290,314.925 206.400 C 315.729 206.510,316.752 206.915,317.198 207.300 C 317.644 207.685,318.187 208.000,318.405 208.000 C 319.129 208.000,318.813 207.104,317.773 206.210 C 316.601 205.203,312.998 204.789,313.296 205.695 M334.172 206.171 C 333.844 207.475,334.193 208.400,335.012 208.400 C 335.501 208.400,335.620 208.060,335.524 206.931 C 335.377 205.187,334.537 204.715,334.172 206.171 M291.307 206.591 C 289.771 208.336,288.327 213.387,289.585 212.609 C 289.813 212.468,290.000 211.816,290.000 211.160 C 290.000 210.503,290.177 209.749,290.394 209.483 C 292.309 207.135,292.743 206.476,292.522 206.256 C 292.149 205.882,291.860 205.962,291.307 206.591 M314.000 208.067 C 314.000 208.543,314.118 208.815,314.263 208.670 C 314.408 208.525,314.752 208.594,315.028 208.823 C 315.736 209.411,316.208 208.532,315.585 207.782 C 314.870 206.920,314.000 207.076,314.000 208.067 M227.059 208.071 C 226.661 208.294,226.001 208.389,225.593 208.282 C 225.185 208.176,224.761 208.326,224.649 208.616 C 224.497 209.012,224.907 209.126,226.291 209.070 C 227.305 209.029,228.204 208.788,228.288 208.535 C 228.517 207.849,227.883 207.610,227.059 208.071 M246.800 207.992 C 246.800 208.208,246.368 208.493,245.840 208.626 C 245.210 208.784,244.810 209.233,244.676 209.933 C 244.493 210.884,244.627 211.610,244.904 211.167 C 244.961 211.075,245.600 210.235,246.323 209.300 C 247.046 208.365,247.449 207.600,247.219 207.600 C 246.988 207.600,246.800 207.777,246.800 207.992 M263.957 208.481 C 263.605 209.137,263.602 209.401,263.943 209.514 C 264.194 209.598,264.400 210.102,264.400 210.633 C 264.400 211.165,264.580 211.600,264.800 211.600 C 265.020 211.600,265.200 210.700,265.200 209.600 C 265.200 207.469,264.727 207.043,263.957 208.481 M256.109 210.800 C 256.109 211.790,256.187 212.195,256.282 211.700 C 256.378 211.205,256.378 210.395,256.282 209.900 C 256.187 209.405,256.109 209.810,256.109 210.800 M301.043 209.833 C 300.909 210.181,300.800 211.080,300.800 211.832 C 300.800 212.831,300.424 213.614,299.400 214.747 C 297.475 216.878,297.519 218.045,299.466 216.491 C 300.884 215.359,302.000 212.936,302.000 210.988 C 302.000 209.213,301.508 208.620,301.043 209.833 M227.247 211.240 C 226.869 212.093,226.482 212.402,225.896 212.318 C 225.444 212.253,225.003 212.410,224.915 212.667 C 224.809 212.977,225.367 213.133,226.586 213.133 L 228.416 213.133 228.275 211.768 C 228.087 209.930,227.874 209.821,227.247 211.240 M317.742 211.106 C 317.032 211.561,316.885 214.485,317.561 214.716 C 317.966 214.854,318.059 214.669,317.896 214.047 C 317.769 213.560,317.916 212.941,318.236 212.622 C 319.268 211.589,318.874 210.380,317.742 211.106 M335.149 211.100 C 334.951 212.265,334.944 213.189,335.136 212.998 C 335.443 212.690,335.682 210.800,335.414 210.800 C 335.296 210.800,335.177 210.935,335.149 211.100 M244.645 211.928 C 244.148 212.731,244.914 214.000,245.896 214.000 C 246.792 214.000,246.840 213.926,246.349 213.302 C 245.287 211.950,244.849 211.597,244.645 211.928 M238.500 212.998 C 237.841 213.747,237.865 214.400,238.551 214.400 C 239.289 214.400,240.133 213.340,239.811 212.818 C 239.468 212.262,239.104 212.312,238.500 212.998 M290.000 213.776 C 290.000 214.422,290.567 214.900,290.917 214.550 C 291.229 214.238,290.799 213.200,290.357 213.200 C 290.161 213.200,290.000 213.459,290.000 213.776 M220.400 215.400 C 220.400 216.933,220.519 217.200,221.200 217.200 C 222.028 217.200,222.304 216.235,221.600 215.800 C 221.380 215.664,221.200 215.113,221.200 214.576 C 221.200 214.039,221.020 213.600,220.800 213.600 C 220.580 213.600,220.400 214.410,220.400 215.400 M310.460 214.700 C 310.427 215.415,310.355 216.113,310.300 216.251 C 310.245 216.389,310.650 216.794,311.200 217.151 L 312.200 217.800 311.533 216.764 C 311.166 216.194,310.788 215.204,310.693 214.564 C 310.520 213.401,310.520 213.401,310.460 214.700 M227.101 214.883 C 226.992 215.387,226.770 216.115,226.609 216.500 C 226.371 217.065,226.520 217.200,227.381 217.200 C 228.366 217.200,228.439 217.087,228.324 215.731 C 228.183 214.055,227.398 213.511,227.101 214.883 M240.706 214.943 C 239.435 215.672,239.090 215.723,238.390 215.287 C 237.710 214.862,237.469 214.874,236.984 215.358 C 235.703 216.639,236.256 217.200,238.800 217.200 C 240.273 217.200,241.200 217.031,241.200 216.762 C 241.200 216.521,241.572 215.801,242.027 215.162 C 242.990 213.809,242.753 213.770,240.706 214.943 M280.126 214.760 C 280.006 215.222,279.748 215.600,279.553 215.600 C 279.359 215.600,279.200 215.960,279.200 216.400 C 279.200 217.993,281.062 217.427,281.122 215.816 C 281.181 214.247,280.460 213.482,280.126 214.760 M334.930 214.287 C 335.069 214.512,334.827 215.108,334.392 215.610 C 333.341 216.821,333.393 217.200,334.613 217.200 C 335.663 217.200,336.019 214.706,335.055 214.110 C 334.847 213.982,334.790 214.061,334.930 214.287 M242.800 215.456 C 242.800 216.168,243.896 217.167,244.700 217.187 C 245.462 217.207,245.298 216.523,244.325 215.616 C 243.266 214.629,242.800 214.580,242.800 215.456 M246.714 215.020 C 246.446 215.287,247.289 217.193,247.676 217.197 C 248.277 217.204,248.401 216.390,247.917 215.616 C 247.395 214.780,247.100 214.634,246.714 215.020 M258.182 216.012 C 257.559 216.420,256.904 216.664,256.725 216.554 C 256.546 216.443,256.400 216.515,256.400 216.713 C 256.400 216.911,257.300 217.105,258.400 217.144 C 260.127 217.205,260.400 217.110,260.400 216.450 C 260.400 215.341,259.481 215.159,258.182 216.012 M290.961 215.663 C 290.828 215.878,291.098 216.153,291.560 216.274 C 292.022 216.394,292.400 216.652,292.400 216.847 C 292.400 217.041,292.670 217.200,293.000 217.200 C 293.783 217.200,293.765 216.634,292.960 215.967 C 292.146 215.292,291.273 215.159,290.961 215.663 M318.642 215.835 C 318.259 216.834,318.355 217.200,319.000 217.200 C 319.330 217.200,319.600 216.851,319.600 216.424 C 319.600 215.418,318.954 215.021,318.642 215.835 M273.200 216.400 C 273.200 217.048,273.467 217.200,274.600 217.200 C 276.182 217.200,276.253 217.110,275.371 216.229 C 274.463 215.320,273.200 215.420,273.200 216.400 M313.000 216.400 C 312.674 216.928,313.152 217.677,313.628 217.383 C 314.113 217.083,314.110 216.000,313.624 216.000 C 313.417 216.000,313.136 216.180,313.000 216.400 M314.892 216.475 C 315.139 217.217,316.000 217.340,316.000 216.633 C 316.000 216.285,315.715 216.000,315.367 216.000 C 315.018 216.000,314.805 216.214,314.892 216.475 M118.000 217.800 L 118.000 218.800 130.800 218.800 C 138.330 218.800,143.600 218.648,143.600 218.432 C 143.600 217.681,140.853 217.522,130.292 217.659 C 121.886 217.769,119.430 217.688,119.300 217.300 C 118.993 216.381,118.000 216.763,118.000 217.800 M294.200 217.600 C 294.336 217.820,294.966 218.000,295.600 218.000 C 296.234 218.000,296.864 217.820,297.000 217.600 C 297.150 217.358,296.596 217.200,295.600 217.200 C 294.604 217.200,294.050 217.358,294.200 217.600 M144.938 283.417 C 144.614 284.261,145.155 284.717,145.616 283.988 C 146.105 283.214,146.095 282.800,145.587 282.800 C 145.361 282.800,145.068 283.078,144.938 283.417 M139.326 284.029 C 138.846 284.208,138.250 284.734,138.002 285.197 C 137.688 285.784,137.317 285.964,136.776 285.792 C 135.928 285.523,135.691 286.189,136.500 286.567 C 136.900 286.753,136.900 286.847,136.500 287.033 C 135.535 287.484,136.015 288.343,137.500 288.821 C 138.325 289.087,139.180 289.443,139.400 289.612 C 139.720 289.858,144.200 289.852,144.200 289.605 C 144.200 289.569,144.531 289.476,144.937 289.399 C 146.662 289.073,146.074 287.840,144.316 288.098 C 143.557 288.209,143.051 288.078,142.920 287.736 C 142.807 287.441,142.464 287.200,142.157 287.200 C 141.851 287.200,141.600 287.020,141.600 286.800 C 141.600 286.580,141.882 286.400,142.227 286.400 C 142.658 286.400,142.780 286.166,142.616 285.650 C 142.446 285.115,142.611 284.838,143.189 284.687 C 143.635 284.570,144.000 284.281,144.000 284.045 C 144.000 283.547,140.651 283.536,139.326 284.029 M146.400 288.800 C 146.400 289.020,146.670 289.200,147.000 289.200 C 147.330 289.200,147.600 289.020,147.600 288.800 C 147.600 288.580,147.330 288.400,147.000 288.400 C 146.670 288.400,146.400 288.580,146.400 288.800 " stroke="none" fill="#6c5884" fill-rule="evenodd"></path><path id="path3" d="M124.100 132.282 C 123.605 132.378,123.200 132.713,123.200 133.028 C 123.200 133.351,123.592 133.606,124.100 133.613 C 124.892 133.624,124.923 133.684,124.360 134.113 C 123.580 134.707,123.624 135.928,124.468 137.133 C 125.058 137.975,125.341 138.023,129.048 137.915 C 132.179 137.824,133.101 137.925,133.487 138.400 C 133.755 138.730,133.980 138.871,133.987 138.714 C 133.994 138.557,133.448 137.799,132.773 137.031 L 131.547 135.634 132.611 133.817 L 133.676 132.000 129.338 132.054 C 126.952 132.084,124.595 132.187,124.100 132.282 M318.909 209.191 C 318.943 209.636,319.112 210.000,319.285 210.000 C 319.727 210.000,319.679 208.896,319.224 208.615 C 319.018 208.487,318.876 208.747,318.909 209.191 M125.100 285.668 C 124.360 286.451,124.004 287.253,124.013 288.116 C 124.038 290.626,124.812 290.941,130.710 290.837 L 132.821 290.800 132.177 289.556 C 131.823 288.872,131.712 288.422,131.929 288.556 C 132.176 288.709,132.245 288.209,132.112 287.220 C 131.916 285.761,131.983 285.619,132.988 285.367 C 134.915 284.884,133.234 284.439,129.609 284.472 C 126.382 284.502,126.141 284.566,125.100 285.668 " stroke="none" fill="#4a3b57" fill-rule="evenodd"></path><path id="path4" d="M123.600 132.000 C 123.270 132.213,121.695 132.391,120.100 132.394 C 118.437 132.397,117.200 132.571,117.200 132.800 C 117.200 133.020,116.530 133.200,115.712 133.200 C 113.864 133.200,110.000 134.073,110.000 134.491 C 110.000 134.661,109.291 134.800,108.424 134.800 C 107.557 134.800,106.736 134.980,106.600 135.200 C 106.464 135.420,105.913 135.600,105.376 135.600 C 104.839 135.600,104.400 135.780,104.400 136.000 C 104.400 136.220,103.860 136.400,103.200 136.400 C 102.540 136.400,102.000 136.580,102.000 136.800 C 102.000 137.020,101.460 137.200,100.800 137.200 C 100.140 137.200,99.600 137.380,99.600 137.600 C 99.600 137.820,99.240 138.000,98.800 138.000 C 98.360 138.000,98.000 138.180,98.000 138.400 C 98.000 138.620,97.640 138.800,97.200 138.800 C 96.760 138.800,96.400 138.980,96.400 139.200 C 96.400 139.420,96.128 139.600,95.795 139.600 C 95.462 139.600,94.832 139.780,94.395 140.000 C 93.958 140.220,93.242 140.580,92.805 140.800 C 92.368 141.020,91.778 141.200,91.494 141.200 C 91.209 141.200,90.717 141.560,90.400 142.000 C 90.083 142.440,89.503 142.800,89.112 142.800 C 88.720 142.800,88.400 142.980,88.400 143.200 C 88.400 143.420,88.080 143.600,87.688 143.600 C 87.297 143.600,86.717 143.960,86.400 144.400 C 86.083 144.840,85.503 145.200,85.112 145.200 C 84.720 145.200,84.400 145.350,84.400 145.532 C 84.400 145.715,83.905 146.120,83.300 146.432 C 82.695 146.745,81.539 147.675,80.731 148.500 C 79.924 149.325,79.051 150.000,78.791 150.000 C 78.157 150.000,66.800 161.477,66.800 162.118 C 66.800 162.396,66.440 162.883,66.000 163.200 C 65.560 163.517,65.199 163.962,65.198 164.188 C 65.197 164.415,64.657 165.175,63.998 165.878 C 63.339 166.581,62.800 167.436,62.800 167.778 C 62.800 168.120,62.620 168.400,62.400 168.400 C 62.180 168.400,62.000 168.636,62.000 168.925 C 62.000 169.213,61.640 169.836,61.200 170.308 C 60.760 170.780,60.400 171.444,60.400 171.783 C 60.400 172.122,60.265 172.401,60.100 172.403 C 59.741 172.407,58.800 174.344,58.800 175.080 C 58.800 175.366,58.665 175.601,58.500 175.603 C 58.141 175.607,57.200 177.544,57.200 178.280 C 57.200 178.566,57.020 178.800,56.800 178.800 C 56.580 178.800,56.400 179.160,56.400 179.600 C 56.400 180.040,56.220 180.400,56.000 180.400 C 55.780 180.400,55.600 180.940,55.600 181.600 C 55.600 182.260,55.443 182.800,55.252 182.800 C 55.061 182.800,54.669 183.655,54.382 184.700 C 54.094 185.745,53.753 186.690,53.623 186.800 C 53.248 187.117,52.400 190.697,52.400 191.963 C 52.400 192.617,52.141 193.214,51.800 193.345 C 51.470 193.471,51.200 193.941,51.200 194.387 C 51.200 194.834,51.024 195.200,50.809 195.200 C 50.567 195.200,50.507 196.438,50.652 198.450 C 50.807 200.596,50.740 201.790,50.453 201.967 C 50.165 202.145,49.968 205.767,49.869 212.718 C 49.734 222.179,49.875 224.234,50.555 222.700 C 50.677 222.425,50.670 223.840,50.541 225.845 L 50.305 229.490 51.402 229.765 C 52.390 230.013,52.476 230.174,52.278 231.395 C 52.131 232.305,52.246 232.906,52.629 233.224 C 52.943 233.485,53.200 234.306,53.200 235.049 C 53.200 235.792,53.380 236.400,53.600 236.400 C 53.820 236.400,54.000 236.749,54.000 237.176 C 54.000 237.603,54.180 238.064,54.400 238.200 C 54.620 238.336,54.800 238.887,54.800 239.424 C 54.800 239.961,55.000 240.400,55.245 240.400 C 55.547 240.400,55.603 240.983,55.421 242.200 C 55.169 243.878,55.638 244.732,56.135 243.500 C 56.256 243.201,56.350 243.282,56.368 243.700 C 56.386 244.085,56.588 244.400,56.818 244.400 C 57.079 244.400,57.138 244.925,56.974 245.800 C 56.704 247.235,57.370 247.855,57.724 246.500 C 57.862 245.973,57.919 246.023,57.954 246.700 C 57.979 247.195,58.180 247.600,58.400 247.600 C 58.620 247.600,58.813 247.915,58.829 248.300 C 58.845 248.685,59.203 249.540,59.623 250.200 C 60.044 250.860,60.566 251.805,60.784 252.300 C 61.002 252.795,61.384 253.200,61.633 253.200 C 61.917 253.200,61.993 253.574,61.836 254.200 C 61.691 254.777,61.757 255.200,61.992 255.200 C 62.217 255.200,62.400 255.575,62.400 256.033 C 62.400 256.519,62.607 256.798,62.896 256.701 C 63.468 256.511,63.847 256.856,65.202 258.800 C 65.739 259.570,66.498 260.549,66.889 260.975 C 67.280 261.402,67.600 261.901,67.600 262.086 C 67.600 262.619,78.610 273.442,79.969 274.245 C 80.646 274.645,81.200 275.114,81.200 275.286 C 81.200 275.459,81.443 275.600,81.741 275.600 C 82.038 275.600,82.846 276.140,83.537 276.800 C 84.228 277.460,85.064 278.000,85.396 278.000 C 85.728 278.000,86.000 278.180,86.000 278.400 C 86.000 278.620,86.236 278.800,86.525 278.800 C 86.813 278.800,87.436 279.160,87.908 279.600 C 88.380 280.040,89.044 280.400,89.383 280.400 C 89.722 280.400,90.000 280.580,90.000 280.800 C 90.000 281.020,90.345 281.200,90.767 281.200 C 91.188 281.200,91.593 281.335,91.667 281.500 C 91.855 281.924,96.799 284.400,97.456 284.400 C 97.755 284.400,98.000 284.580,98.000 284.800 C 98.000 285.020,98.360 285.200,98.800 285.200 C 99.240 285.200,99.600 285.380,99.600 285.600 C 99.600 285.820,100.140 286.000,100.800 286.000 C 101.460 286.000,102.000 286.180,102.000 286.400 C 102.000 286.620,102.439 286.800,102.976 286.800 C 103.513 286.800,104.064 286.980,104.200 287.200 C 104.336 287.420,104.876 287.600,105.400 287.600 C 105.924 287.600,106.464 287.780,106.600 288.000 C 106.736 288.220,107.456 288.400,108.200 288.400 C 108.944 288.400,109.664 288.580,109.800 288.800 C 109.936 289.020,110.757 289.200,111.624 289.200 C 112.491 289.200,113.200 289.380,113.200 289.600 C 113.200 289.825,114.325 290.000,115.776 290.000 C 117.193 290.000,118.464 290.180,118.600 290.400 C 118.914 290.908,124.800 290.930,124.800 290.424 C 124.800 290.217,124.620 289.936,124.400 289.800 C 123.584 289.295,123.962 286.797,125.000 285.835 C 126.391 284.546,126.336 284.493,123.300 284.242 C 116.923 283.713,115.379 283.512,115.020 283.166 C 114.811 282.965,113.956 282.800,113.120 282.800 C 112.284 282.800,111.600 282.620,111.600 282.400 C 111.600 282.180,110.880 282.000,110.000 282.000 C 109.120 282.000,108.400 281.820,108.400 281.600 C 108.400 281.380,107.860 281.200,107.200 281.200 C 106.540 281.200,106.000 281.020,106.000 280.800 C 106.000 280.580,105.651 280.400,105.224 280.400 C 104.797 280.400,104.336 280.220,104.200 280.000 C 104.064 279.780,103.468 279.596,102.876 279.591 C 102.284 279.586,101.350 279.230,100.800 278.800 C 100.250 278.370,99.530 278.010,99.200 278.000 C 98.870 277.990,98.150 277.630,97.600 277.200 C 97.050 276.770,96.319 276.414,95.975 276.409 C 95.632 276.404,94.964 276.040,94.492 275.600 C 94.020 275.160,93.438 274.800,93.200 274.800 C 92.962 274.800,92.380 274.440,91.908 274.000 C 91.436 273.560,90.813 273.200,90.525 273.200 C 90.236 273.200,90.000 273.020,90.000 272.800 C 90.000 272.580,89.728 272.400,89.396 272.400 C 89.064 272.400,88.228 271.860,87.537 271.200 C 86.846 270.540,86.128 270.000,85.941 270.000 C 85.755 270.000,84.837 269.280,83.903 268.400 C 82.969 267.520,82.061 266.800,81.887 266.800 C 81.443 266.800,74.716 259.969,73.341 258.122 C 72.719 257.285,71.892 256.309,71.504 255.953 C 71.117 255.597,70.800 255.129,70.800 254.912 C 70.800 254.696,70.260 253.954,69.600 253.263 C 68.940 252.572,68.400 251.818,68.400 251.587 C 68.400 251.356,68.040 250.780,67.600 250.308 C 67.160 249.836,66.800 249.213,66.800 248.925 C 66.800 248.636,66.620 248.400,66.400 248.400 C 66.180 248.400,66.000 248.040,66.000 247.600 C 66.000 247.160,65.865 246.799,65.700 246.797 C 65.341 246.793,64.400 244.856,64.400 244.120 C 64.400 243.834,64.220 243.600,64.000 243.600 C 63.780 243.600,63.600 243.240,63.600 242.800 C 63.600 242.360,63.420 242.000,63.200 242.000 C 62.980 242.000,62.800 241.640,62.800 241.200 C 62.800 240.760,62.620 240.400,62.400 240.400 C 62.180 240.400,62.000 240.051,62.000 239.624 C 62.000 239.197,61.820 238.736,61.600 238.600 C 61.380 238.464,61.200 237.913,61.200 237.376 C 61.200 236.839,61.020 236.400,60.800 236.400 C 60.580 236.400,60.400 235.860,60.400 235.200 C 60.400 234.540,60.220 234.000,60.000 234.000 C 59.780 234.000,59.600 233.561,59.600 233.024 C 59.600 232.487,59.420 231.936,59.200 231.800 C 58.980 231.664,58.800 230.944,58.800 230.200 C 58.800 229.456,58.620 228.736,58.400 228.600 C 58.180 228.464,58.000 227.744,58.000 227.000 C 58.000 226.256,57.845 225.552,57.656 225.435 C 56.404 224.661,56.381 198.708,57.631 197.420 C 57.834 197.211,58.000 196.547,58.000 195.944 C 58.000 195.341,58.180 194.736,58.400 194.600 C 58.620 194.464,58.800 193.731,58.800 192.971 C 58.800 191.644,58.907 191.298,59.938 189.305 C 60.192 188.813,60.400 188.048,60.400 187.605 C 60.400 187.162,60.580 186.800,60.800 186.800 C 61.020 186.800,61.200 186.361,61.200 185.824 C 61.200 185.287,61.380 184.736,61.600 184.600 C 61.820 184.464,62.000 184.003,62.000 183.576 C 62.000 183.149,62.180 182.800,62.400 182.800 C 62.620 182.800,62.800 182.528,62.800 182.195 C 62.800 181.862,62.957 181.277,63.150 180.895 C 63.342 180.513,63.909 179.390,64.410 178.400 C 64.910 177.410,65.517 176.196,65.760 175.703 C 66.002 175.210,66.335 174.805,66.500 174.803 C 66.665 174.801,66.800 174.440,66.800 174.000 C 66.800 173.560,66.950 173.200,67.132 173.200 C 67.315 173.200,67.719 172.705,68.030 172.100 C 68.340 171.495,68.911 170.709,69.297 170.353 C 69.684 169.997,70.000 169.484,70.000 169.214 C 70.000 168.943,70.540 168.217,71.200 167.600 C 71.860 166.983,72.400 166.274,72.400 166.024 C 72.400 165.410,83.915 154.000,84.534 154.000 C 84.803 154.000,85.283 153.640,85.600 153.200 C 85.917 152.760,86.362 152.400,86.588 152.399 C 86.815 152.399,87.630 151.859,88.400 151.200 C 89.170 150.541,90.025 150.001,90.300 150.001 C 90.575 150.000,90.800 149.820,90.800 149.600 C 90.800 149.380,91.120 149.200,91.512 149.200 C 91.903 149.200,92.483 148.840,92.800 148.400 C 93.117 147.960,93.697 147.600,94.088 147.600 C 94.480 147.600,94.800 147.420,94.800 147.200 C 94.800 146.980,95.160 146.800,95.600 146.800 C 96.040 146.800,96.400 146.620,96.400 146.400 C 96.400 146.180,96.653 146.000,96.962 146.000 C 97.447 146.000,98.720 145.448,101.695 143.950 C 102.077 143.757,102.662 143.600,102.995 143.600 C 103.328 143.600,103.600 143.420,103.600 143.200 C 103.600 142.980,104.039 142.800,104.576 142.800 C 105.113 142.800,105.664 142.620,105.800 142.400 C 105.936 142.180,106.397 142.000,106.824 142.000 C 107.251 142.000,107.600 141.820,107.600 141.600 C 107.600 141.380,108.320 141.200,109.200 141.200 C 110.080 141.200,110.800 141.020,110.800 140.800 C 110.800 140.580,111.520 140.400,112.400 140.400 C 113.280 140.400,114.000 140.220,114.000 140.000 C 114.000 139.780,114.954 139.600,116.120 139.600 C 117.286 139.600,118.412 139.428,118.622 139.218 C 118.832 139.008,120.578 138.805,122.502 138.767 C 124.426 138.729,126.000 138.541,126.000 138.349 C 126.000 138.157,125.773 138.000,125.496 138.000 C 124.197 138.000,123.297 134.923,124.360 134.113 C 124.923 133.684,124.892 133.624,124.100 133.613 C 122.890 133.596,122.937 132.481,124.161 132.174 C 124.689 132.042,127.373 131.993,130.124 132.067 C 132.876 132.140,134.919 132.068,134.664 131.906 C 133.973 131.468,124.295 131.551,123.600 132.000 M100.780 174.580 C 100.546 174.814,100.400 189.030,100.400 211.644 L 100.400 248.327 104.700 248.464 C 107.065 248.539,118.585 248.538,130.300 248.462 L 151.600 248.324 151.600 244.362 L 151.600 240.400 133.200 240.400 L 114.800 240.400 114.800 207.643 C 114.800 176.817,114.759 174.869,114.100 174.611 C 113.003 174.180,101.206 174.153,100.780 174.580 M118.087 174.630 C 117.871 175.017,117.786 176.023,117.900 176.866 C 118.169 178.874,117.748 178.834,117.200 176.800 C 116.963 175.920,116.618 175.200,116.434 175.200 C 114.787 175.200,115.044 182.093,116.699 182.328 C 117.260 182.407,117.690 182.821,117.843 183.428 L 118.087 184.400 136.443 184.400 L 154.800 184.400 154.800 216.400 L 154.800 248.400 162.000 248.400 L 169.200 248.400 169.200 211.696 C 169.200 177.172,169.158 174.967,168.500 174.560 C 168.027 174.267,166.176 174.221,162.800 174.417 C 156.028 174.810,120.416 174.684,119.340 174.264 C 118.698 174.013,118.381 174.106,118.087 174.630 M235.200 177.200 C 235.200 177.422,236.267 177.600,237.600 177.600 C 238.933 177.600,240.000 177.422,240.000 177.200 C 240.000 176.978,238.933 176.800,237.600 176.800 C 236.267 176.800,235.200 176.978,235.200 177.200 M217.467 178.267 C 217.320 178.413,217.200 181.048,217.200 184.123 C 217.200 190.782,217.191 190.768,221.420 190.787 C 224.676 190.802,225.200 190.460,225.200 188.320 L 225.200 186.800 223.200 186.800 C 221.689 186.800,221.200 186.653,221.200 186.200 C 221.200 185.521,221.826 185.395,222.200 186.000 C 222.493 186.475,224.000 186.542,224.000 186.080 C 224.000 185.461,223.030 184.800,222.120 184.800 C 221.232 184.800,221.200 184.681,221.200 181.400 L 221.200 178.000 219.467 178.000 C 218.513 178.000,217.613 178.120,217.467 178.267 M234.090 184.300 L 234.200 190.600 237.463 190.716 L 240.726 190.831 241.357 189.567 C 241.703 188.872,241.856 188.100,241.696 187.851 C 241.536 187.603,241.381 185.600,241.352 183.400 C 241.323 181.200,241.277 179.085,241.250 178.700 C 241.206 178.089,240.743 178.000,237.590 178.000 L 233.980 178.000 234.090 184.300 M253.700 178.598 C 253.425 178.911,253.200 179.523,253.200 179.960 C 253.200 180.396,253.020 180.864,252.800 181.000 C 252.580 181.136,252.400 181.597,252.400 182.024 C 252.400 182.451,252.220 182.800,252.000 182.800 C 251.780 182.800,251.600 183.149,251.600 183.576 C 251.600 184.003,251.420 184.464,251.200 184.600 C 250.980 184.736,250.800 185.287,250.800 185.824 C 250.800 186.361,250.620 186.800,250.400 186.800 C 250.180 186.800,250.000 187.124,250.000 187.520 C 250.000 187.916,249.788 188.452,249.529 188.711 C 249.169 189.071,249.230 189.370,249.791 189.991 C 251.030 191.359,253.452 190.860,254.112 189.100 C 254.473 188.140,257.200 188.101,257.200 189.056 C 257.200 189.936,258.371 190.775,259.600 190.775 C 261.854 190.775,262.422 189.576,261.200 187.400 C 260.760 186.617,260.400 185.621,260.400 185.188 C 260.400 184.755,260.220 184.400,260.000 184.400 C 259.780 184.400,259.600 184.051,259.600 183.624 C 259.600 183.197,259.420 182.736,259.200 182.600 C 258.980 182.464,258.800 181.913,258.800 181.376 C 258.800 180.839,258.620 180.400,258.400 180.400 C 258.180 180.400,258.000 180.117,258.000 179.771 C 258.000 178.178,254.831 177.313,253.700 178.598 M270.000 183.856 C 270.000 190.787,270.927 192.404,273.517 189.992 L 274.384 189.184 275.192 189.992 C 277.582 192.382,280.718 189.963,278.390 187.526 C 277.724 186.830,277.319 186.156,277.490 186.030 C 279.140 184.807,279.294 180.604,277.745 179.055 C 276.774 178.083,276.427 178.000,273.345 178.000 L 270.000 178.000 270.000 183.856 M287.067 178.267 C 286.393 178.940,286.783 189.699,287.500 190.243 C 288.648 191.115,290.372 190.935,290.788 189.900 C 291.065 189.210,291.155 189.164,291.175 189.700 C 291.206 190.566,292.800 190.664,292.800 189.800 C 292.800 189.333,292.978 189.378,293.600 190.000 C 296.392 192.792,297.470 190.176,297.269 181.100 L 297.200 178.000 295.200 178.000 L 293.200 178.000 293.200 179.600 C 293.200 180.480,293.045 181.200,292.855 181.200 C 292.666 181.200,292.603 180.721,292.715 180.135 C 292.876 179.291,292.789 179.119,292.299 179.307 C 291.898 179.461,291.607 179.272,291.477 178.772 C 291.273 177.994,287.744 177.590,287.067 178.267 M297.600 182.000 C 297.600 183.100,297.780 184.000,298.000 184.000 C 298.220 184.000,298.400 183.100,298.400 182.000 C 298.400 180.900,298.220 180.000,298.000 180.000 C 297.780 180.000,297.600 180.900,297.600 182.000 M239.800 186.400 C 238.695 186.875,238.000 186.875,238.000 186.400 C 238.000 186.180,238.585 186.013,239.300 186.028 C 240.389 186.052,240.470 186.112,239.800 186.400 M94.183 201.299 C 94.037 201.681,93.604 201.813,92.928 201.684 C 92.171 201.539,91.945 201.635,92.080 202.040 C 92.305 202.716,91.483 203.600,90.629 203.600 C 90.283 203.600,90.000 203.780,90.000 204.000 C 90.000 204.220,89.680 204.400,89.288 204.400 C 88.897 204.400,88.317 204.760,88.000 205.200 C 87.683 205.640,87.103 206.000,86.712 206.000 C 86.320 206.000,86.000 206.180,86.000 206.400 C 86.000 206.620,85.722 206.800,85.383 206.800 C 85.044 206.800,84.380 207.160,83.908 207.600 C 83.436 208.040,82.813 208.400,82.525 208.400 C 82.236 208.400,82.000 208.580,82.000 208.800 C 82.000 209.020,81.640 209.200,81.200 209.200 C 80.760 209.200,80.400 209.380,80.400 209.600 C 80.400 209.820,80.122 210.000,79.782 210.000 C 79.070 210.000,77.200 211.746,77.200 212.410 C 77.200 213.063,78.244 214.000,78.971 214.000 C 79.317 214.000,79.600 214.180,79.600 214.400 C 79.600 214.620,79.836 214.800,80.125 214.800 C 80.413 214.800,81.036 215.160,81.508 215.600 C 81.980 216.040,82.644 216.400,82.983 216.400 C 83.322 216.400,83.600 216.580,83.600 216.800 C 83.600 217.020,83.836 217.200,84.125 217.200 C 84.413 217.200,85.036 217.560,85.508 218.000 C 85.980 218.440,86.644 218.800,86.983 218.800 C 87.322 218.800,87.600 218.946,87.600 219.125 C 87.600 219.304,88.230 219.698,89.000 220.000 C 89.770 220.302,90.400 220.805,90.400 221.117 C 90.400 221.458,90.640 221.593,91.000 221.455 C 91.330 221.329,91.600 221.399,91.600 221.613 C 91.600 221.826,91.960 222.000,92.400 222.000 C 92.840 222.000,93.200 222.180,93.200 222.400 C 93.200 222.620,93.560 222.800,94.000 222.800 C 94.440 222.800,94.800 222.980,94.800 223.200 C 94.800 223.420,95.340 223.600,96.000 223.600 L 97.200 223.600 97.200 220.171 C 97.200 216.558,97.068 216.248,95.100 215.232 C 94.495 214.920,94.000 214.515,94.000 214.332 C 94.000 214.150,93.640 214.000,93.200 214.000 C 92.760 214.000,92.400 213.820,92.400 213.600 C 92.400 213.380,92.124 213.200,91.787 213.200 C 91.451 213.200,91.073 212.935,90.949 212.610 C 90.681 211.912,91.678 210.800,92.571 210.800 C 92.917 210.800,93.200 210.600,93.200 210.357 C 93.200 210.078,93.590 210.011,94.251 210.177 C 95.041 210.375,95.250 210.306,95.093 209.899 C 94.968 209.571,95.343 209.155,96.043 208.845 C 97.556 208.176,97.911 201.200,96.433 201.200 C 96.011 201.200,95.382 201.091,95.036 200.958 C 94.673 200.819,94.312 200.964,94.183 201.299 M172.400 204.629 C 172.400 208.157,172.804 209.200,174.171 209.200 C 174.517 209.200,174.800 209.380,174.800 209.600 C 174.800 209.820,175.025 210.000,175.300 210.000 C 176.450 210.002,177.905 211.763,177.550 212.725 C 177.103 213.931,176.215 214.800,175.429 214.800 C 175.083 214.800,174.800 214.980,174.800 215.200 C 174.800 215.420,174.517 215.600,174.171 215.600 C 172.804 215.600,172.400 216.643,172.400 220.171 L 172.400 223.600 173.817 223.600 C 174.681 223.600,175.569 223.288,176.092 222.800 C 176.564 222.360,177.187 222.000,177.475 222.000 C 177.764 222.000,178.000 221.820,178.000 221.600 C 178.000 221.380,178.278 221.200,178.617 221.200 C 178.956 221.200,179.620 220.840,180.092 220.400 C 180.564 219.960,181.187 219.600,181.475 219.600 C 181.764 219.600,182.000 219.420,182.000 219.200 C 182.000 218.980,182.360 218.800,182.800 218.800 C 183.240 218.800,183.600 218.620,183.600 218.400 C 183.600 218.180,183.920 218.000,184.312 218.000 C 184.703 218.000,185.283 217.640,185.600 217.200 C 185.917 216.760,186.497 216.400,186.888 216.400 C 187.280 216.400,187.600 216.220,187.600 216.000 C 187.600 215.780,187.960 215.600,188.400 215.600 C 188.840 215.600,189.200 215.450,189.200 215.268 C 189.200 215.085,189.695 214.680,190.300 214.368 C 191.689 213.651,192.400 212.985,192.400 212.400 C 192.400 211.815,191.392 210.800,190.812 210.800 C 190.567 210.800,189.980 210.440,189.508 210.000 C 189.036 209.560,188.413 209.200,188.125 209.200 C 187.836 209.200,187.600 209.020,187.600 208.800 C 187.600 208.580,187.240 208.400,186.800 208.400 C 186.360 208.400,186.000 208.220,186.000 208.000 C 186.000 207.780,185.764 207.600,185.475 207.600 C 185.187 207.600,184.564 207.240,184.092 206.800 C 183.620 206.360,182.971 206.000,182.650 206.000 C 182.329 206.000,182.007 205.865,181.933 205.700 C 181.766 205.324,179.636 204.025,178.700 203.729 C 178.315 203.607,178.000 203.348,178.000 203.153 C 178.000 202.959,177.722 202.800,177.383 202.800 C 177.044 202.800,176.380 202.440,175.908 202.000 C 175.408 201.534,174.496 201.200,173.725 201.200 L 172.400 201.200 172.400 204.629 M118.262 203.900 C 118.160 204.065,118.582 204.200,119.200 204.200 C 119.818 204.200,120.240 204.065,120.138 203.900 C 120.036 203.735,119.614 203.600,119.200 203.600 C 118.786 203.600,118.364 203.735,118.262 203.900 M149.200 203.755 C 149.200 203.840,149.730 203.987,150.379 204.082 C 151.027 204.177,151.467 204.108,151.355 203.928 C 151.157 203.607,149.200 203.450,149.200 203.755 M171.200 205.200 C 171.200 205.860,171.380 206.400,171.600 206.400 C 171.820 206.400,172.000 205.860,172.000 205.200 C 172.000 204.540,171.820 204.000,171.600 204.000 C 171.380 204.000,171.200 204.540,171.200 205.200 M91.200 212.400 C 91.200 212.620,91.560 212.800,92.000 212.800 C 92.440 212.800,92.800 212.620,92.800 212.400 C 92.800 212.180,92.440 212.000,92.000 212.000 C 91.560 212.000,91.200 212.180,91.200 212.400 M245.462 217.700 C 245.564 217.865,245.986 218.000,246.400 218.000 C 246.814 218.000,247.236 217.865,247.338 217.700 C 247.440 217.535,247.018 217.400,246.400 217.400 C 245.782 217.400,245.360 217.535,245.462 217.700 M98.400 221.200 C 98.400 221.860,98.580 222.400,98.800 222.400 C 99.020 222.400,99.200 221.860,99.200 221.200 C 99.200 220.540,99.020 220.000,98.800 220.000 C 98.580 220.000,98.400 220.540,98.400 221.200 M51.200 231.200 C 51.200 231.640,51.380 232.000,51.600 232.000 C 51.820 232.000,52.000 231.640,52.000 231.200 C 52.000 230.760,51.820 230.400,51.600 230.400 C 51.380 230.400,51.200 230.760,51.200 231.200 M223.067 232.667 C 222.920 232.813,222.800 233.353,222.800 233.867 C 222.800 234.380,222.620 234.800,222.400 234.800 C 222.180 234.800,222.000 235.149,222.000 235.576 C 222.000 236.003,221.820 236.464,221.600 236.600 C 221.380 236.736,221.200 237.287,221.200 237.824 C 221.200 238.361,221.020 238.800,220.800 238.800 C 220.580 238.800,220.400 239.160,220.400 239.600 C 220.400 240.040,220.220 240.400,220.000 240.400 C 219.780 240.400,219.600 240.875,219.600 241.456 C 219.600 242.037,219.285 242.754,218.900 243.051 C 218.245 243.555,218.264 243.641,219.200 244.386 C 220.862 245.709,223.600 245.131,223.600 243.456 C 223.600 242.957,223.984 242.800,225.200 242.800 C 226.459 242.800,226.800 242.950,226.800 243.502 C 226.800 244.441,229.087 245.466,229.960 244.919 C 230.692 244.461,231.098 241.200,230.423 241.200 C 230.190 241.200,230.000 240.840,230.000 240.400 C 230.000 239.960,229.820 239.600,229.600 239.600 C 229.380 239.600,229.200 239.060,229.200 238.400 C 229.200 237.740,229.020 237.200,228.800 237.200 C 228.580 237.200,228.400 236.840,228.400 236.400 C 228.400 235.960,228.220 235.600,228.000 235.600 C 227.780 235.600,227.600 235.137,227.600 234.571 C 227.600 232.825,224.297 231.437,223.067 232.667 M240.500 234.201 C 238.811 235.960,237.838 241.200,239.200 241.200 C 239.420 241.200,239.600 241.494,239.600 241.853 C 239.600 242.663,241.561 244.399,242.476 244.400 C 242.848 244.400,243.264 244.580,243.400 244.800 C 243.536 245.020,244.357 245.200,245.224 245.200 C 246.091 245.200,246.800 245.020,246.800 244.800 C 246.800 244.580,247.225 244.400,247.745 244.400 C 249.171 244.400,250.800 242.558,250.800 240.945 C 250.800 239.264,247.512 238.857,246.400 240.400 C 246.083 240.840,245.458 241.179,245.012 241.154 C 244.337 241.115,244.318 241.076,244.900 240.924 C 245.931 240.655,245.805 239.200,244.751 239.200 C 244.036 239.200,243.982 239.104,244.407 238.591 C 244.699 238.239,245.227 238.082,245.656 238.218 C 246.190 238.387,246.400 238.254,246.400 237.747 C 246.400 237.197,246.507 237.147,246.880 237.520 C 248.122 238.762,250.800 238.102,250.800 236.554 C 250.800 232.279,243.865 230.695,240.500 234.201 M259.600 238.304 C 259.600 243.841,259.651 244.240,260.428 244.725 C 261.530 245.413,263.579 244.571,263.646 243.402 C 263.685 242.728,263.722 242.712,263.876 243.300 C 263.976 243.685,264.212 244.000,264.400 244.000 C 264.588 244.000,264.824 243.685,264.924 243.300 C 265.075 242.724,265.115 242.745,265.154 243.420 C 265.227 244.712,267.656 245.444,268.984 244.574 C 270.145 243.813,270.597 233.957,269.520 232.880 C 268.417 231.777,265.200 232.286,265.200 233.563 C 265.200 234.528,265.064 234.690,264.400 234.516 C 263.882 234.381,263.600 233.970,263.600 233.353 C 263.600 232.476,263.441 232.400,261.600 232.400 L 259.600 232.400 259.600 238.304 M278.267 232.667 C 277.407 233.526,278.005 244.268,278.940 244.768 C 281.746 246.269,282.249 245.135,282.078 237.700 L 281.956 232.400 280.244 232.400 C 279.303 232.400,278.413 232.520,278.267 232.667 M291.067 232.667 C 290.920 232.813,290.800 235.517,290.800 238.675 C 290.800 245.192,291.194 245.962,293.940 244.825 C 294.587 244.557,295.630 244.379,296.258 244.429 C 298.624 244.619,298.800 244.506,298.800 242.800 C 298.800 241.674,298.629 241.200,298.224 241.200 C 297.907 241.200,297.520 240.994,297.364 240.742 C 297.163 240.417,297.404 240.364,298.191 240.562 C 299.114 240.794,299.259 240.730,299.051 240.188 C 298.913 239.828,298.800 237.929,298.800 235.967 L 298.800 232.400 295.067 232.400 C 293.013 232.400,291.213 232.520,291.067 232.667 M306.800 233.200 C 306.800 233.640,307.004 234.000,307.252 234.000 C 307.548 234.000,307.624 234.497,307.472 235.435 C 307.285 236.585,307.354 236.826,307.819 236.648 C 308.206 236.500,308.400 236.689,308.400 237.213 C 308.400 237.646,308.580 238.000,308.800 238.000 C 309.020 238.000,309.200 238.439,309.200 238.976 C 309.200 239.513,309.380 240.064,309.600 240.200 C 309.820 240.336,310.000 240.797,310.000 241.224 C 310.000 241.651,310.168 242.000,310.373 242.000 C 310.579 242.000,310.804 242.463,310.873 243.029 C 311.151 245.283,315.600 245.741,315.600 243.515 C 315.600 243.066,315.810 242.906,316.200 243.055 C 316.616 243.215,316.800 243.028,316.800 242.443 C 316.800 241.979,317.000 241.600,317.245 241.600 C 317.530 241.600,317.612 241.063,317.473 240.100 C 317.355 239.275,317.348 238.915,317.458 239.300 C 317.755 240.337,318.400 240.148,318.400 239.024 C 318.400 238.487,318.596 237.926,318.836 237.778 C 319.096 237.617,319.172 236.974,319.024 236.185 C 318.882 235.431,318.953 234.753,319.188 234.608 C 320.495 233.800,319.597 232.400,317.771 232.400 C 315.990 232.400,314.800 233.041,314.800 234.000 C 314.800 234.251,314.530 234.727,314.200 235.057 C 313.833 235.424,313.600 235.479,313.600 235.200 C 313.600 234.039,312.143 233.278,311.876 234.300 C 311.775 234.685,311.672 234.415,311.646 233.700 L 311.600 232.400 309.200 232.400 C 307.067 232.400,306.800 232.489,306.800 233.200 M327.690 238.662 L 327.800 244.923 331.100 245.003 L 334.400 245.082 335.006 243.867 C 335.416 243.045,335.481 242.521,335.206 242.246 C 334.602 241.642,334.715 240.800,335.400 240.800 C 335.733 240.800,336.000 240.444,336.000 240.000 C 336.000 239.112,335.392 238.921,335.043 239.700 C 334.919 239.975,334.850 239.030,334.889 237.600 C 334.928 236.170,335.114 234.789,335.303 234.531 C 336.287 233.187,334.732 232.400,331.094 232.400 L 327.580 232.400 327.690 238.662 M247.200 238.800 C 247.200 239.020,247.920 239.200,248.800 239.200 C 249.680 239.200,250.400 239.020,250.400 238.800 C 250.400 238.580,249.680 238.400,248.800 238.400 C 247.920 238.400,247.200 238.580,247.200 238.800 M115.200 239.600 C 115.200 239.820,115.560 240.000,116.000 240.000 C 116.440 240.000,116.800 239.820,116.800 239.600 C 116.800 239.380,116.440 239.200,116.000 239.200 C 115.560 239.200,115.200 239.380,115.200 239.600 M224.000 243.600 C 224.000 243.820,224.540 244.000,225.200 244.000 C 225.860 244.000,226.400 243.820,226.400 243.600 C 226.400 243.380,225.860 243.200,225.200 243.200 C 224.540 243.200,224.000 243.380,224.000 243.600 M152.800 245.600 C 152.800 246.933,152.933 247.200,153.600 247.200 C 154.267 247.200,154.400 246.933,154.400 245.600 C 154.400 244.267,154.267 244.000,153.600 244.000 C 152.933 244.000,152.800 244.267,152.800 245.600 M145.600 249.200 C 145.600 249.420,145.960 249.600,146.400 249.600 C 146.840 249.600,147.200 249.420,147.200 249.200 C 147.200 248.980,146.840 248.800,146.400 248.800 C 145.960 248.800,145.600 248.980,145.600 249.200 " stroke="none" fill="#241c26" fill-rule="evenodd"></path></g></svg>